<?xml version="1.0" standalone="no"?><svg xmlns="http://www.w3.org/2000/svg" viewBox="0 0 1440 320"><path fill="#F29317" fill-opacity="1" d="M0,160L24,149.3C48,139,96,117,144,133.3C192,149,240,203,288,218.7C336,235,384,213,432,202.7C480,192,528,192,576,192C624,192,672,192,720,208C768,224,816,256,864,224C912,192,960,96,1008,48C1056,0,1104,0,1152,16C1200,32,1248,64,1296,80C1344,96,1392,96,1416,96L1440,96L1440,320L1416,320C1392,320,1344,320,1296,320C1248,320,1200,320,1152,320C1104,320,1056,320,1008,320C960,320,912,320,864,320C816,320,768,320,720,320C672,320,624,320,576,320C528,320,480,320,432,320C384,320,336,320,288,320C240,320,192,320,144,320C96,320,48,320,24,320L0,320Z"></path></svg>